<svg width="45" height="28" viewBox="0 0 45 28" fill="none" xmlns="http://www.w3.org/2000/svg">
<path d="M43.0225 0.00842285H31.0043C30.6402 0.00842285 30.3451 0.297001 30.3451 0.652954C30.3451 1.00891 30.6402 1.29749 31.0043 1.29749H43.0225C43.386 1.29749 43.6816 1.58658 43.6816 1.94202V18.0493C43.6816 18.4046 43.386 18.6938 43.0225 18.6938H42.2701V12.6198C42.2701 11.5535 41.3829 10.6862 40.2926 10.6862H14.3815C14.0175 10.6862 13.7224 10.9747 13.7224 11.3307C13.7224 11.6866 14.0175 11.9752 14.3815 11.9752H40.2926C40.6561 11.9752 40.9518 12.2643 40.9518 12.6198V13.3554H4.04824V12.6198C4.04824 12.2643 4.34399 11.9752 4.70742 11.9752H11.5084C11.8724 11.9752 12.1676 11.6866 12.1676 11.3307C12.1676 10.9747 11.8724 10.6862 11.5084 10.6862H4.70742C3.61696 10.6862 2.72988 11.5535 2.72988 12.6198V18.6938H1.97754C1.61402 18.6938 1.31836 18.4046 1.31836 18.0493V1.94202C1.31836 1.58658 1.61402 1.29749 1.97754 1.29749H28.132C28.4962 1.29749 28.7912 1.00891 28.7912 0.652954C28.7912 0.297001 28.4962 0.00842285 28.132 0.00842285H1.97754C0.88708 0.00842285 0 0.87579 0 1.94202V18.0493C0 19.1155 0.88708 19.9829 1.97754 19.9829H43.0225C44.1128 19.9829 45 19.1155 45 18.0493V1.94202C45 0.87579 44.1128 0.00842285 43.0225 0.00842285ZM4.04824 18.6938V17.3137H21.0639C21.4279 17.3137 21.723 17.0251 21.723 16.6691C21.723 16.3132 21.4279 16.0246 21.0639 16.0246H4.04824V14.6444H40.9518V16.0246H23.9361C23.572 16.0246 23.277 16.3132 23.277 16.6691C23.277 17.0251 23.572 17.3137 23.9361 17.3137H40.9518V18.6938H4.04824Z" fill="black"/>
<path d="M24.5708 3.32251V5.99173C24.5708 6.34768 24.8658 6.63626 25.23 6.63626H33.4202C33.7844 6.63626 34.0794 6.34768 34.0794 5.99173V3.32251C34.0794 2.96656 33.7844 2.67798 33.4202 2.67798H25.23C24.8659 2.67798 24.5708 2.96656 24.5708 3.32251ZM25.8892 3.96704H32.7611V5.3472H25.8892V3.96704Z" fill="black"/>
<path d="M39.5393 4.657C39.5393 3.56568 38.6313 2.67786 37.5152 2.67786C36.3992 2.67786 35.4912 3.56568 35.4912 4.657C35.4912 5.74832 36.3992 6.63614 37.5152 6.63614C38.6313 6.63614 39.5393 5.74832 39.5393 4.657ZM36.8096 4.657C36.8096 4.27647 37.1262 3.96692 37.5152 3.96692C37.9043 3.96692 38.2209 4.27647 38.2209 4.657C38.2209 5.03753 37.9043 5.34707 37.5152 5.34707C37.1262 5.34707 36.8096 5.03753 36.8096 4.657Z" fill="black"/>
<path d="M22.5 21.3635C22.136 21.3635 21.8408 21.6521 21.8408 22.0081V27.3469C21.8408 27.7029 22.136 27.9915 22.5 27.9915C22.8641 27.9915 23.1592 27.7029 23.1592 27.3469V22.0081C23.1592 21.6521 22.8641 21.3635 22.5 21.3635Z" fill="black"/>
<path d="M17.0398 21.3635C16.6757 21.3635 16.3806 21.6521 16.3806 22.0081C16.5604 23.8793 15.8231 25.8864 14.0149 26.7705C13.6893 26.9296 13.5573 27.3168 13.7202 27.6352C13.9743 27.9767 14.2691 28.0728 14.6045 27.9234C16.8788 26.8116 17.882 24.3939 17.699 22.0081C17.699 21.6521 17.4039 21.3635 17.0398 21.3635Z" fill="black"/>
<path d="M10.2144 21.3635C9.85037 21.3635 9.55523 21.6521 9.55523 22.0081C9.55523 23.9336 8.47356 25.6604 7.01827 26.8911C6.76084 27.1428 6.76084 27.5509 7.01827 27.8026C7.32896 28.0543 7.63974 28.0543 7.95044 27.8026C9.61614 26.2377 10.8736 24.3602 10.8736 22.008C10.8736 21.6521 10.5785 21.3635 10.2144 21.3635Z" fill="black"/>
<path d="M30.985 26.7704C29.177 25.8865 28.4482 23.8819 28.6194 22.0081C28.6194 21.6521 28.3243 21.3635 27.9602 21.3635C27.5961 21.3635 27.301 21.6521 27.301 22.0081C27.1046 24.4024 28.104 26.8031 30.3955 27.9234C30.7309 28.0728 31.0257 27.9766 31.2799 27.6352C31.4427 27.3168 31.3107 26.9296 30.985 26.7704Z" fill="black"/>
<path d="M35.4443 22.0081C35.4622 21.6525 35.1493 21.3635 34.7852 21.3635C34.421 21.3635 34.126 21.6521 34.126 22.0081C34.126 24.3389 35.3885 26.253 37.0492 27.8027C37.3599 28.0544 37.6707 28.0543 37.9814 27.8027C38.2388 27.5509 38.2388 27.1428 37.9813 26.8911C36.6062 25.673 35.3666 23.5569 35.4443 22.0081Z" fill="black"/>
</svg>
