<svg width="44" height="45" viewBox="0 0 44 45" fill="none" xmlns="http://www.w3.org/2000/svg">
<path d="M42.0307 17.7787H41.3866V6.24538C41.3866 5.16608 40.528 4.28796 39.4726 4.28796H35.3798C34.3245 4.28796 33.4659 5.16599 33.4659 6.24538V7.02883C31.9228 7.30121 30.7453 8.67995 30.7453 10.3347C30.7453 10.695 31.0308 10.9872 31.3833 10.9872H36.8244C37.1767 10.9872 37.4624 10.695 37.4624 10.3347C37.4624 8.67995 36.2849 7.30129 34.7418 7.02883V6.24538C34.7418 5.88555 35.028 5.59288 35.3798 5.59288H39.4726C39.8245 5.59288 40.1106 5.88555 40.1106 6.24538V17.7787H30.6789C30.4234 17.0048 29.7068 16.446 28.8649 16.446H27.5847C27.2324 16.446 26.9467 16.7381 26.9467 17.0985C26.9467 17.4588 27.2323 17.751 27.5847 17.751H28.8649C29.2168 17.751 29.5029 18.0436 29.5029 18.4035V24.5498H21.5318V18.4034C21.5318 18.0436 21.818 17.7509 22.1698 17.7509H24.8041C25.1565 17.7509 25.4421 17.4587 25.4421 17.0984C25.4421 16.738 25.1566 16.4459 24.8041 16.4459H22.1698C21.3408 16.4459 20.6332 16.9878 20.3678 17.7435C19.0223 17.6328 17.6916 17.2554 16.4888 16.64C14.4887 15.6172 12.2489 15.0765 10.0118 15.0765H1.96926C0.883352 15.0766 0 15.9801 0 17.0906C0 18.2011 0.883352 19.1046 1.96926 19.1046H3.08017V26.6601C3.08017 30.2821 5.269 33.391 8.36498 34.6764V36.0061C8.36498 36.3913 8.05853 36.7048 7.68187 36.7048C6.60163 36.7048 5.72284 37.6035 5.72284 38.7084C5.72284 39.8133 6.60163 40.712 7.68187 40.712H10.3241C11.4043 40.712 12.2832 39.8133 12.2832 38.7084V37.3573C12.2832 36.227 13.1824 35.3075 14.2875 35.3075H14.2907H19.5065C19.8589 35.3075 20.1445 35.0153 20.1445 34.655C20.1445 34.2946 19.859 34.0025 19.5065 34.0025H11.5363C7.57711 34.0025 4.35617 30.7087 4.35617 26.6601V19.1046H6.63927C6.99162 19.1046 7.27727 18.8124 7.27727 18.4521C7.27727 18.0917 6.9917 17.7996 6.63927 17.7996H1.96926C1.58701 17.7996 1.276 17.4815 1.276 17.0906C1.276 16.6996 1.58701 16.3815 1.96926 16.3815H10.0118C12.0519 16.3815 14.0943 16.8745 15.918 17.8072C17.2633 18.4955 18.7512 18.9183 20.2558 19.0435V20.4656C18.5358 20.3373 16.8346 19.8615 15.2985 19.0749C13.4824 18.1473 11.4395 17.7588 9.41892 17.7996C9.06658 17.7996 8.78092 18.0917 8.78092 18.4521C8.78092 18.8124 9.06649 19.1046 9.41892 19.1046C11.2336 19.0539 13.0981 19.4096 14.7278 20.2421C16.4394 21.1186 18.3384 21.6433 20.2558 21.7736V27.9041C20.2558 28.2644 20.5414 28.5566 20.8938 28.5566H30.1409C30.4932 28.5566 30.7789 28.2644 30.7789 27.9041V21.8066H40.0719V26.6601C40.0719 30.7087 36.8509 34.0025 32.8918 34.0025H22.2871C21.9348 34.0025 21.6491 34.2946 21.6491 34.655C21.6491 35.0153 21.9347 35.3075 22.2871 35.3075H30.1372H30.1405C31.2457 35.3075 32.1447 36.227 32.1447 37.3573V38.7084C32.1447 39.8132 33.0236 40.712 34.1039 40.712H36.7461C37.8263 40.712 38.7051 39.8133 38.7051 38.7084C38.7051 37.6035 37.8263 36.7048 36.7461 36.7048C36.3694 36.7048 36.063 36.3913 36.063 36.0061V34.6764C39.159 33.391 41.3478 30.2821 41.3478 26.6601V21.8066H42.0307C43.1166 21.8066 44 20.9032 44 19.7927C44 18.6822 43.1166 17.7787 42.0307 17.7787ZM36.0824 9.68216H32.1253C32.424 8.77461 33.3149 8.32294 34.1822 8.28488C35.0644 8.28479 35.8154 8.87076 36.0824 9.68216ZM11.6924 35.3074C11.263 35.8746 11.0071 36.5859 11.0071 37.3572V38.7083C11.0071 39.0935 10.7007 39.407 10.324 39.407H7.6817C7.30503 39.407 6.99866 39.0935 6.99866 38.7083C6.99866 38.3231 7.30512 38.0097 7.6817 38.0097C8.76193 38.0097 9.64081 37.1109 9.64081 36.0061V35.0884C10.3203 35.2404 11.0042 35.3134 11.6924 35.3074ZM36.7462 38.0097C37.1229 38.0097 37.4292 38.3231 37.4292 38.7083C37.4292 39.0935 37.1228 39.407 36.7462 39.407H34.104C33.7272 39.407 33.4208 39.0935 33.4208 38.7083V37.3572C33.4208 36.5859 33.165 35.8746 32.7356 35.3074C33.4238 35.3134 34.1076 35.2403 34.7872 35.0884V36.0061C34.7871 37.1109 35.666 38.0097 36.7462 38.0097ZM21.5318 27.2517V25.8547H29.5029V27.2517H21.5318ZM42.0307 20.5017H30.7789V19.0836H42.0307C42.413 19.0836 42.724 19.4017 42.724 19.7927C42.7241 20.1836 42.4131 20.5017 42.0307 20.5017Z" fill="black"/>
<path d="M34.7418 14.3777V13.0369C34.7418 12.6765 34.4563 12.3844 34.1038 12.3844C33.7514 12.3844 33.4658 12.6765 33.4658 13.0369V14.3777C33.4658 14.738 33.7514 15.0302 34.1038 15.0302C34.4563 15.0302 34.7418 14.738 34.7418 14.3777Z" fill="black"/>
<path d="M37.8174 14.6427C38.0937 14.4191 38.0665 13.9747 37.8174 13.72L36.8904 12.7719C36.6412 12.5171 36.2373 12.5171 35.9881 12.7719C35.739 13.0267 35.739 13.4399 35.9881 13.6946L36.9151 14.6427C37.2379 14.9314 37.5144 14.888 37.8174 14.6427Z" fill="black"/>
<path d="M30.9856 14.6427L31.9126 13.6946C32.1617 13.4398 32.1617 13.0266 31.9126 12.7719C31.6634 12.5171 31.2596 12.5171 31.0103 12.7719L30.0833 13.72C29.8342 13.9748 29.8342 14.388 30.0833 14.6427C30.2079 14.7701 30.5923 14.9749 30.9856 14.6427Z" fill="black"/>
<path d="M20.8969 15.0327C21.9729 15.0327 22.8483 14.1373 22.8483 13.0368C22.8483 11.9364 21.973 11.041 20.8969 11.041C19.8208 11.041 18.9453 11.9364 18.9453 13.0368C18.9453 14.1373 19.8208 15.0327 20.8969 15.0327ZM20.8969 12.3459C21.2693 12.3459 21.5723 12.6558 21.5723 13.0368C21.5723 13.4178 21.2693 13.7277 20.8969 13.7277C20.5243 13.7277 20.2213 13.4178 20.2213 13.0368C20.2213 12.6558 20.5243 12.3459 20.8969 12.3459Z" fill="black"/>
<path d="M15.6044 10.9715C16.6804 10.9715 17.5559 10.0762 17.5559 8.97568C17.5559 7.8752 16.6805 6.97986 15.6044 6.97986C14.5283 6.97986 13.6528 7.8752 13.6528 8.97568C13.6528 10.0762 14.5284 10.9715 15.6044 10.9715ZM15.6044 8.28477C15.9769 8.28477 16.2799 8.59467 16.2799 8.97568C16.2799 9.35668 15.9769 9.66659 15.6044 9.66659C15.2318 9.66659 14.9288 9.35668 14.9288 8.97568C14.9288 8.59467 15.2318 8.28477 15.6044 8.28477Z" fill="black"/>
</svg>
