<svg width="45" height="44" viewBox="0 0 45 44" fill="none" xmlns="http://www.w3.org/2000/svg">
<path d="M44.3601 35.3842H34.4136C34.1206 33.733 32.962 32.6152 31.6255 31.7064C31.6699 31.5855 31.7119 31.4637 31.7513 31.3411H33.2716C38.0935 31.3411 42.1655 27.4611 42.2848 22.7468C42.2939 22.3907 42.006 22.0948 41.6416 22.0859C41.636 22.0858 41.6306 22.0858 41.625 22.0858C41.2683 22.0858 40.9747 22.3642 40.9659 22.7148C40.8634 26.7599 37.4117 30.0509 33.2716 30.0509H32.0671C32.146 29.5883 32.1956 29.1151 32.2473 28.649H33.2716C36.725 28.649 39.5345 25.9023 39.5345 22.5261V20.0156C39.5345 18.1836 38.0101 16.6932 36.1364 16.6932H33.6855L33.8542 15.2912H36.1364C38.7547 15.2912 40.9219 17.3728 40.9674 19.9314C40.9737 20.2837 41.2678 20.5652 41.6269 20.5652C41.6307 20.5652 41.6347 20.5652 41.6386 20.5651C42.0029 20.5589 42.293 20.2651 42.2868 19.9089C42.2288 16.6513 39.4698 14.0011 36.1365 14.0011L21.1601 14.0114C20.7958 14.0114 20.5004 14.3002 20.5004 14.6565C20.5004 15.0128 20.7958 15.3015 21.1601 15.3015H32.5245L32.3583 16.6832H6.85164L6.77201 16.0216C6.77008 15.5899 6.98857 15.3499 7.42741 15.3015H18.2846C18.6489 15.3015 18.9443 15.0128 18.9443 14.6565C18.9443 14.3002 18.6489 14.0114 18.2846 14.0114H7.42741C6.10764 14.0011 5.31953 15.0066 5.46156 16.1724L6.71945 26.6255C4.76248 27.7069 4.61588 29.9431 6.00033 31.4168C4.67547 31.9224 2.91528 33.7274 2.78072 35.3842H0.642957C0.0506618 35.504 -0.132414 35.8382 0.0937282 36.3867L2.01651 39.2116C2.6459 40.1363 3.69979 40.6883 4.83578 40.6883H26.0129C26.3772 40.6883 26.6726 40.3996 26.6726 40.0433C26.6726 39.687 26.3772 39.3982 26.0129 39.3982H4.83578C4.14241 39.3982 3.49905 39.0612 3.11497 38.4969L1.87448 36.6743H43.1286L41.8881 38.4969C41.5039 39.0612 40.8607 39.3982 40.1673 39.3982H28.8884C28.5241 39.3982 28.2287 39.687 28.2287 40.0433C28.2287 40.3996 28.5241 40.6883 28.8884 40.6883H40.1672C41.3032 40.6883 42.3571 40.1363 42.9865 39.2116L44.9092 36.3867C45.044 36.1887 45.1371 35.3842 44.3601 35.3842ZM33.0655 35.3842H28.5887L30.4796 32.5028C31.3659 33.0166 32.7931 33.9435 33.0655 35.3842ZM22.8831 35.3842C23.7935 32.9408 25.1686 29.2337 26.1878 26.4117C27.3504 26.755 28.522 27.1799 29.6789 27.6783C30.7386 28.1345 30.8961 29.4773 30.3405 30.326L27.021 35.3842H22.8831V35.3842ZM15.7093 35.3842C14.7496 32.8169 12.0571 25.4732 12.0513 25.4548C11.7598 24.4096 12.4673 23.3269 13.6534 23.3269H23.5306C24.5699 23.3269 25.4204 24.4865 25.1368 25.4414C25.1295 25.4646 22.4282 32.8379 21.4787 35.3842H15.7093V35.3842ZM7.98305 26.0856L7.32713 20.6346H31.8829L31.1069 27.0851C30.8501 26.8425 30.5481 26.6429 30.2109 26.4977C28.9902 25.9718 27.7527 25.5241 26.5241 25.1634C26.6452 23.5107 25.1745 22.0369 23.5306 22.0369H13.6534C12.0083 22.0369 10.5371 23.5117 10.66 25.1663C9.77119 25.4273 8.87558 25.7349 7.98305 26.0856ZM36.1364 17.9833C37.2825 17.9833 38.2151 18.895 38.2151 20.0156V22.5261C38.2151 25.1909 35.9974 27.3589 33.2716 27.3589H32.4024L33.5303 17.9833H36.1364ZM32.203 17.9733L32.038 19.3445H7.17191L7.00694 17.9733H32.203ZM7.71455 27.5928C8.80993 27.1382 9.9076 26.7362 10.9968 26.4143C12.0023 29.2016 13.386 32.9245 14.3047 35.3842H10.1719L6.85243 30.3261C6.54393 29.9038 6.26497 28.1943 7.71455 27.5928ZM6.71303 32.5028L8.604 35.3842H4.12887C4.34588 34.5315 5.42465 33.3223 6.71303 32.5028Z" fill="black"/>
<path d="M15.6745 7.28033H26.6027C26.9908 7.28033 27.3065 7.58901 27.3065 7.97367C27.3065 8.35308 26.9908 8.66177 26.6027 8.66177H21.1328C20.0172 8.66177 19.1095 9.54925 19.1095 10.6401V11.9784C19.1095 12.3347 19.4049 12.6235 19.7692 12.6235C20.1335 12.6235 20.4289 12.3347 20.4289 11.9784V10.6401C20.4289 10.2606 20.7446 9.95195 21.1327 9.95195H26.6026C27.7182 9.95195 28.6259 9.06456 28.6259 7.96851C28.6259 6.87771 27.7182 5.99032 26.6026 5.99032H15.6745C15.283 5.99032 14.9645 5.67888 14.9645 5.29603C14.9645 4.91318 15.283 4.60174 15.6745 4.60174H22.5017C22.866 4.60174 23.1614 4.31299 23.1614 3.95669C23.1614 3.6004 22.866 3.31165 22.5017 3.31165H15.6745C14.5555 3.31165 13.645 4.20187 13.645 5.29603C13.645 6.39018 14.5555 7.28033 15.6745 7.28033Z" fill="black"/>
</svg>
