<svg width="45" height="45" viewBox="0 0 45 45" fill="none" xmlns="http://www.w3.org/2000/svg">
<path d="M44.3408 32.761C44.6475 32.2672 44.9998 31.3826 44.9998 30.6955V27.9545C44.9998 26.8385 44.4567 25.847 43.621 25.2303C44.4381 24.6263 44.9999 23.5105 44.9999 22.5024C44.9999 21.3922 44.4629 20.4051 43.635 19.7871V8.84424C43.635 6.97841 42.117 5.46045 40.2512 5.46045H23.9361C23.572 5.46045 23.277 5.75559 23.277 6.11963C23.277 6.48367 23.572 6.77881 23.9361 6.77881H40.2513C41.3902 6.77881 42.3167 7.70535 42.3167 8.84424V19.1895C41.8843 19.0978 41.3546 19.0996 40.9047 19.116V10.1678C40.9047 9.07732 40.0176 8.19024 38.9272 8.19024H6.0728C4.98234 8.19024 4.09526 9.07732 4.09526 10.1678V19.116C3.64526 19.0998 3.11607 19.0977 2.6833 19.1887V8.84424C2.6833 7.70535 3.60984 6.77881 4.74873 6.77881H21.0639C21.4279 6.77881 21.723 6.48367 21.723 6.11963C21.723 5.75559 21.4279 5.46045 21.0639 5.46045H4.74873C2.8829 5.46045 1.36494 6.97841 1.36494 8.84424V19.785C0.55582 20.3896 0 21.5009 0 22.5024C0 23.6195 0.543779 24.612 1.38041 25.2292C0.543867 25.8459 0.000175781 26.8379 0.000175781 27.9546V30.6956C0.000175781 31.4726 0.263496 32.1893 0.705498 32.7611H0.65918C0.295137 32.7611 0 33.0563 0 33.4203V36.1502C0 36.5142 0.295137 36.8094 0.65918 36.8094H2.73023V38.8803C2.73023 39.2444 3.02537 39.5395 3.38941 39.5395H6.11947C6.48352 39.5395 6.77865 39.2444 6.77865 38.8803V36.8094H12.1904C12.5545 36.8094 12.8496 36.5142 12.8496 36.1502C12.8496 35.7861 12.5545 35.491 12.1904 35.491H1.31836V34.0795H43.6816V35.491H15.0636C14.6995 35.491 14.4044 35.7861 14.4044 36.1502C14.4044 36.5142 14.6995 36.8094 15.0636 36.8094H38.2213V38.8803C38.2213 39.2444 38.5163 39.5395 38.8804 39.5395H41.6105C41.9746 39.5395 42.2697 39.2444 42.2697 38.8803V36.8094H44.3408C44.705 36.8094 45 36.5142 45 36.1502V33.4203C45 33.0562 44.705 32.761 44.3408 32.761ZM5.41362 10.1678C5.41362 9.80436 5.70929 9.5086 6.0728 9.5086H38.9271C39.2906 9.5086 39.5863 9.80436 39.5863 10.1678V19.116H38.0595C38.1339 18.9082 38.1744 18.6846 38.1744 18.4516V15.6276C38.1744 14.5372 37.2872 13.6501 36.1969 13.6501H26.5482C25.4579 13.6501 24.5707 14.5372 24.5707 15.6276V18.4516C24.5707 18.6846 24.6112 18.9082 24.6856 19.116H20.3142C20.3885 18.9082 20.4291 18.6845 20.4291 18.4514V15.6279C20.4291 14.5374 19.542 13.6504 18.4516 13.6504H8.80295C7.71249 13.6504 6.82541 14.5374 6.82541 15.6279V18.4514C6.82541 18.6845 6.86593 18.9082 6.94037 19.116H5.41371L5.41362 10.1678ZM8.14377 18.4514V15.6279C8.14377 15.2644 8.43943 14.9687 8.80295 14.9687H18.4516C18.8151 14.9687 19.1108 15.2644 19.1108 15.6279V18.4514C19.1108 18.8149 18.8151 19.1106 18.4516 19.1106H8.80295C8.43943 19.1106 8.14377 18.8149 8.14377 18.4514ZM3.38643 20.4344H29.9364C30.3006 20.4344 30.5956 20.1392 30.5956 19.7752C30.5956 19.7743 30.5956 19.7734 30.5956 19.7726C30.5956 19.7717 30.5956 19.7708 30.5956 19.7699C30.5956 19.4059 30.3006 19.1107 29.9364 19.1107H26.5482C26.1847 19.1107 25.8891 18.8151 25.8891 18.4516V15.6276C25.8891 15.2641 26.1847 14.9685 26.5482 14.9685H36.1969C36.5604 14.9685 36.8561 15.2641 36.8561 15.6276V18.4516C36.8561 18.8151 36.5604 19.1107 36.1969 19.1107H32.8096C32.4454 19.1107 32.1504 19.4059 32.1504 19.7699V19.7726V19.7752C32.1504 20.1392 32.4454 20.4344 32.8096 20.4344H41.6136C42.754 20.4344 43.6816 21.3622 43.6816 22.5024C43.5633 23.7627 42.8738 24.4521 41.6136 24.5705H3.38643C2.24604 24.5705 1.31836 23.6427 1.31836 22.5024C1.31836 21.9502 1.79648 20.4344 3.38643 20.4344ZM1.31854 27.9545C1.31854 26.8156 2.24508 25.889 3.38396 25.889H41.616C42.7549 25.889 43.6815 26.8156 43.6815 27.9545V30.6955C43.6815 31.8344 42.7549 32.7609 41.616 32.7609H3.38396C2.24508 32.7609 1.31854 31.8344 1.31854 30.6955V27.9545ZM5.46029 38.2212H4.04859V36.8095H5.46029V38.2212ZM40.9514 38.2212H39.5397V36.8095H40.9514V38.2212Z" fill="black"/>
</svg>
