<svg width="45" height="44" viewBox="0 0 45 44" fill="none" xmlns="http://www.w3.org/2000/svg">
<path d="M10.4256 8.86961C13.651 5.71579 17.9391 3.97891 22.5 3.97891C27.0609 3.97891 31.349 5.71579 34.5744 8.86961C35.5336 9.64528 36.4928 9.64528 37.452 8.86961C38.2465 7.93177 38.2465 6.99385 37.452 6.05602C33.4579 2.15067 28.1478 0 22.5 0C16.8522 0 11.5422 2.15067 7.54797 6.0561C6.75484 6.83177 6.75484 8.09385 7.54797 8.86961C8.34145 9.64528 9.63212 9.64528 10.4256 8.86961ZM8.48031 6.96756C12.2253 3.30576 17.2044 1.28906 22.5 1.28906C27.7956 1.28906 32.7747 3.30576 36.5197 6.96747C36.7996 7.29764 36.7996 7.62781 36.5197 7.95798C36.2404 8.23109 35.786 8.23109 35.5068 7.95798C32.0323 4.56079 27.413 2.68984 22.5 2.68984C17.587 2.68984 12.9678 4.56079 9.49325 7.95807C9.21394 8.23135 8.75954 8.23109 8.48031 7.95816C8.201 7.68505 8.201 7.24058 8.48031 6.96756Z" fill="black"/>
<path d="M33.5907 12.645C34.3857 11.7073 34.386 10.7696 33.5917 9.83175C30.6297 6.93463 26.6907 5.33911 22.5004 5.33911C18.31 5.33911 14.3708 6.93489 11.4081 9.83253C10.6136 10.7705 10.614 11.7083 11.4091 12.6457C12.3683 13.4227 13.3274 13.4226 14.2866 12.6455C16.158 10.814 18.5278 9.68978 21.1399 9.3945C21.5016 9.3536 21.7608 9.03382 21.719 8.68019C21.6772 8.32656 21.3492 8.07339 20.9885 8.11395C18.0778 8.443 15.4378 9.69503 13.354 11.7342C13.0163 12.0078 12.6786 12.0076 12.3409 11.7338C12.0609 11.404 12.0607 11.074 12.3404 10.7438C15.0541 8.08988 18.6623 6.62817 22.5004 6.62817C26.3385 6.62817 29.9463 8.08954 32.6594 10.7432C32.939 11.0734 32.9386 11.4035 32.6584 11.7334C32.3794 12.0064 31.925 12.0064 31.6458 11.7335C29.5614 9.69468 26.9218 8.44309 24.0121 8.11403C23.6506 8.0721 23.3235 8.32664 23.2816 8.68028C23.2396 9.03382 23.499 9.35368 23.8607 9.39459C26.4718 9.68996 28.8414 10.8138 30.7133 12.645C31.5067 13.4206 32.7975 13.4206 33.5907 12.645Z" fill="black"/>
<path d="M29.7288 16.421C30.6032 15.5537 30.5235 14.5454 29.729 13.6075C27.7981 11.7193 25.2304 10.6796 22.4991 10.6796C19.7679 10.6796 17.2003 11.7194 15.2692 13.6075C14.4747 14.5453 14.4747 15.4832 15.2692 16.421C16.0625 17.1965 17.3532 17.1965 18.1467 16.421C19.3091 15.2843 20.8549 14.6584 22.4991 14.6584C24.1435 14.6584 25.6891 15.2843 26.8516 16.421C27.2483 16.8088 28.6963 17.4452 29.7288 16.421ZM17.2144 15.5093C16.9353 15.7824 16.4807 15.7824 16.2015 15.5093C15.9218 15.1792 15.9218 14.8491 16.2015 14.519C17.8836 12.8743 20.12 11.9685 22.4992 11.9685C24.8784 11.9685 27.1149 12.8743 28.7969 14.519C29.0766 14.8492 29.0765 15.1793 28.7968 15.5094C28.5174 15.7825 28.0631 15.7824 27.7839 15.5094C26.3726 14.1293 24.4958 13.3693 22.4993 13.3693C20.5027 13.3693 18.626 14.1294 17.2144 15.5093Z" fill="black"/>
<path d="M18.8516 19.584C18.8516 21.551 20.4883 23.1513 22.5 23.1513C24.5117 23.1513 26.1484 21.551 26.1484 19.584C26.1484 17.6169 24.5117 16.0166 22.5 16.0166C20.4883 16.0166 18.8516 17.6169 18.8516 19.584ZM24.8301 19.584C24.8301 20.8402 23.7848 21.8622 22.5 21.8622C21.2152 21.8622 20.1699 20.8402 20.1699 19.584C20.1699 18.3277 21.2152 17.3057 22.5 17.3057C23.7848 17.3057 24.8301 18.3276 24.8301 19.584Z" fill="black"/>
<path d="M41.6112 24.0247H23.9363C23.5722 24.0247 23.2771 24.3132 23.2771 24.6692C23.2771 25.0252 23.5722 25.3137 23.9363 25.3137H40.952V42.711H4.04834V25.3137H21.0641C21.4282 25.3137 21.7232 25.0252 21.7232 24.6692C21.7232 24.3132 21.4282 24.0247 21.0641 24.0247H3.38916C3.02503 24.0247 2.72998 24.3132 2.72998 24.6692V43.3555C2.72998 43.7116 3.02503 44.0001 3.38916 44.0001H41.6113C41.9754 44.0001 42.2705 43.7116 42.2705 43.3555V24.6692C42.2704 24.3132 41.9753 24.0247 41.6112 24.0247Z" fill="black"/>
<path d="M13.8401 30.6821C14.2042 30.6821 14.4993 30.3936 14.4993 30.0376C14.4993 29.6816 14.2042 29.3931 13.8401 29.3931H10.5449C10.1808 29.3931 9.88574 29.6816 9.88574 30.0376V37.9872C9.88574 38.3432 10.1808 38.6317 10.5449 38.6317C10.9091 38.6317 11.2041 38.3432 11.2041 37.9872V34.5816H13.5785C13.9426 34.5816 14.2376 34.2931 14.2376 33.9371C14.2376 33.5811 13.9426 33.2926 13.5785 33.2926H11.2041V30.6821H13.8401Z" fill="black"/>
<path d="M27.9961 30.6893C28.3603 30.6893 28.6553 30.4008 28.6553 30.0448C28.6553 29.6888 28.3603 29.4003 27.9961 29.4003H24.5767C24.2125 29.4003 23.9175 29.6888 23.9175 30.0448V37.9799C23.9175 38.336 24.2125 38.6245 24.5767 38.6245H27.9961C28.3603 38.6245 28.6553 38.336 28.6553 37.9799C28.6553 37.6239 28.3603 37.3354 27.9961 37.3354H25.2358V34.6569H27.744C28.1081 34.6569 28.4032 34.3684 28.4032 34.0124C28.4032 33.6563 28.1081 33.3678 27.744 33.3678H25.2358V30.6893H27.9961Z" fill="black"/>
<path d="M34.4557 30.6893C34.8198 30.6893 35.1149 30.4008 35.1149 30.0448C35.1149 29.6888 34.8198 29.4003 34.4557 29.4003H31.0361C30.672 29.4003 30.377 29.6888 30.377 30.0448V37.9799C30.377 38.336 30.672 38.6245 31.0361 38.6245H34.4557C34.8198 38.6245 35.1149 38.336 35.1149 37.9799C35.1149 37.6239 34.8198 37.3354 34.4557 37.3354H31.6953V34.6569H34.2035C34.5677 34.6569 34.8627 34.3684 34.8627 34.0124C34.8627 33.6563 34.5677 33.3678 34.2035 33.3678H31.6953V30.6893H34.4557Z" fill="black"/>
<path d="M22.1083 32.0895C22.1083 30.5865 20.8036 29.3636 19.2001 29.3636H17.0236C17.0232 29.3636 17.0228 29.3636 17.0223 29.3636C17.0219 29.3636 17.0214 29.3636 17.021 29.3636C16.6569 29.3636 16.3618 29.6521 16.3618 30.0082V38.0164C16.3618 38.3725 16.6569 38.661 17.021 38.661C17.3851 38.661 17.6802 38.3725 17.6802 38.0164V34.821C17.6849 34.821 17.6898 34.8209 17.6946 34.8209L20.9544 38.4423C21.0846 38.5871 21.2666 38.6611 21.4495 38.6611C21.6041 38.6611 21.7594 38.6081 21.8847 38.5003C22.1579 38.2652 22.1845 37.8579 21.944 37.5907L19.4376 34.8063C20.9305 34.6925 22.1083 33.5175 22.1083 32.0895ZM19.2001 33.5262C18.8552 33.5262 18.1952 33.5292 17.6942 33.5318C17.6914 33.0486 17.6883 32.4164 17.6883 32.0895C17.6883 31.813 17.6864 31.1557 17.6849 30.6527H19.2001C20.0619 30.6527 20.7899 31.3106 20.7899 32.0895C20.7899 32.8682 20.0619 33.5262 19.2001 33.5262Z" fill="black"/>
<path d="M38.8806 33.2527C39.2448 33.2527 39.5398 32.9642 39.5398 32.6082V27.3445C39.5398 26.9884 39.2448 26.7 38.8806 26.7H6.12012C5.75599 26.7 5.46094 26.9884 5.46094 27.3445V40.6863C5.46094 41.0423 5.75599 41.3308 6.12012 41.3308H38.8806C39.2448 41.3308 39.5398 41.0423 39.5398 40.6863V35.4166C39.5398 35.0606 39.2448 34.7721 38.8806 34.7721C38.5165 34.7721 38.2215 35.0606 38.2215 35.4166V40.0417H6.7793V27.989H38.2215V32.6082C38.2215 32.9642 38.5165 33.2527 38.8806 33.2527Z" fill="black"/>
</svg>
