<svg width="44" height="44" viewBox="0 0 44 44" fill="currentColor" xmlns="http://www.w3.org/2000/svg">
<path d="M43.3555 18.6863H41.3308V15.3261C41.3308 14.9701 41.0423 14.6816 40.6862 14.6816H38.6607V11.3223C38.6607 10.9662 38.3722 10.6777 38.0162 10.6777H32.6777C32.3217 10.6777 32.0332 10.9662 32.0332 11.3223V18.6863H20.6998C20.3437 18.6863 20.0552 18.9747 20.0552 19.3308C20.0552 19.6868 20.3437 19.9753 20.6998 19.9753H32.0332V24.0246H11.9669V19.9753H17.8905C18.2465 19.9753 18.535 19.6868 18.535 19.3308C18.535 18.9747 18.2465 18.6863 17.8905 18.6863H11.9669V11.3224C11.9669 10.9663 11.6784 10.6778 11.3224 10.6778H5.98357C5.62753 10.6778 5.33904 10.9663 5.33904 11.3224V14.682H3.31409C2.95805 14.682 2.66956 14.9705 2.66956 15.3265V18.6863H0.644531C0.288492 18.6863 0 18.9748 0 19.3309V24.6692C0 25.0253 0.288492 25.3137 0.644531 25.3137H2.66956V28.6736C2.66956 29.0296 2.95805 29.3181 3.31409 29.3181H5.33895V32.6777C5.33895 33.0338 5.62745 33.3223 5.98348 33.3223H11.3223C11.6783 33.3223 11.9668 33.0338 11.9668 32.6777V25.3137H32.0332V32.6777C32.0332 33.0338 32.3217 33.3223 32.6777 33.3223H38.0162C38.3722 33.3223 38.6607 33.0338 38.6607 32.6777V29.3184H40.6862C41.0423 29.3184 41.3308 29.0299 41.3308 28.6739V25.3137H43.3555C43.7115 25.3137 44 25.0253 44 24.6692V19.3308C44 18.9748 43.7115 18.6863 43.3555 18.6863ZM1.28906 24.0247V19.9753H2.66956V24.0246H1.28906V24.0247ZM3.95862 28.0289V15.9711H5.33895V28.029H3.95862V28.0289ZM9.29758 32.0331V26.0623C9.29758 25.7062 9.00909 25.4177 8.65305 25.4177C8.29701 25.4177 8.00852 25.7062 8.00852 26.0623V32.0331H6.6281V11.9669H8.00852V23.253C8.00852 23.609 8.29701 23.8975 8.65305 23.8975C9.00909 23.8975 9.29758 23.609 9.29758 23.253V11.9669H10.6778V32.0331H9.29758ZM33.3223 11.9668H34.7026V32.0332H33.3223V11.9668ZM40.0417 28.0294H38.6607V23.4042C38.6607 23.0482 38.3722 22.7597 38.0162 22.7597C37.6601 22.7597 37.3716 23.0482 37.3716 23.4042V32.0332H35.9916V11.9668H37.3716V20.5958C37.3716 20.9518 37.6601 21.2403 38.0162 21.2403C38.3722 21.2403 38.6607 20.9518 38.6607 20.5958V15.9706H40.0417V28.0294ZM42.7109 24.0247H41.3308V19.9753H42.7109V24.0247Z" fill="black"/>
</svg>
