<svg width="27" height="27" viewBox="0 0 27 27" fill="none" xmlns="http://www.w3.org/2000/svg">
<path d="M22.6838 26.5705H3.70893C1.78257 26.5705 0.217285 25.0076 0.217285 23.0882V4.16268C0.217285 2.2433 1.78437 0.68042 3.70893 0.68042H22.6838C24.6083 0.68042 26.1754 2.2433 26.1754 4.16268V23.0882C26.1754 25.0094 24.6083 26.5705 22.6838 26.5705ZM3.70893 2.69523C2.8965 2.69523 2.23753 3.35423 2.23753 4.16268V23.0882C2.23753 23.8985 2.8965 24.5557 3.70893 24.5557H22.6838C23.4962 24.5557 24.1551 23.8967 24.1551 23.0882V4.16268C24.1551 3.35423 23.4944 2.69523 22.6838 2.69523H3.70893Z" fill="black"/>
<path fill-rule="evenodd" clip-rule="evenodd" d="M20.7681 13.9612C20.7681 18.0737 17.4263 21.4065 13.3027 21.4065C9.1792 21.4065 5.8374 18.0737 5.8374 13.9612C5.8374 9.84877 9.1792 6.51416 13.3027 6.51416C17.4263 6.51596 20.7681 9.84877 20.7681 13.9612Z" fill="white"/>
<path d="M13.3047 22.5967C8.53123 22.5967 4.646 18.7219 4.646 13.9612C4.646 9.20058 8.52943 5.32581 13.3047 5.32581C18.0782 5.32581 21.9635 9.20058 21.9635 13.9612C21.9616 18.7237 18.0782 22.5967 13.3047 22.5967ZM13.3047 7.70433C9.84557 7.70433 7.03094 10.5114 7.03094 13.9612C7.03094 17.4111 9.84557 20.2163 13.3047 20.2163C16.7639 20.2163 19.5785 17.4111 19.5785 13.9612C19.5767 10.5114 16.7639 7.70433 13.3047 7.70433Z" fill="black"/>
<path fill-rule="evenodd" clip-rule="evenodd" d="M22.4472 5.78678C22.4472 6.59163 21.7937 7.24523 20.9848 7.24523C20.176 7.24523 19.5225 6.59163 19.5225 5.78678C19.5225 4.98013 20.176 4.32654 20.9848 4.32654C21.7919 4.32654 22.4472 4.98013 22.4472 5.78678Z" fill="black"/>
</svg>
