<svg width="21" height="26" viewBox="0 0 21 26" fill="none" xmlns="http://www.w3.org/2000/svg">
<path fill-rule="evenodd" clip-rule="evenodd" d="M11.0974 0.848877C4.08156 0.850678 0.542969 5.70316 0.542969 9.75259C0.542969 10.4998 0.633221 11.2236 0.817372 11.8898C1.23262 13.4059 2.13353 14.6321 3.56522 15.1974C3.90644 15.3289 4.20974 15.2028 4.30543 14.8409C4.37403 14.5907 4.5347 13.9605 4.60872 13.6958C4.70441 13.3393 4.66831 13.215 4.3957 12.9036C4.03823 12.4966 3.76199 12.0159 3.59409 11.4289C3.48215 11.0382 3.41897 10.6043 3.41897 10.1073C3.41897 6.5044 6.21374 3.27962 10.6911 3.27962C14.6576 3.27962 16.8368 5.61853 16.8368 8.74068C16.8368 9.66256 16.7429 10.5502 16.5659 11.3731C15.9485 14.2288 14.3272 16.3192 12.1589 16.3192C10.6117 16.3192 9.45443 15.0894 9.82454 13.5752C10.0376 12.7127 10.3427 11.8232 10.6045 10.9824C10.8934 10.0587 11.1298 9.19982 11.1298 8.51741C11.1298 7.35246 10.4799 6.37836 9.1385 6.37836C7.55877 6.37836 6.28776 7.95384 6.28776 10.0659C6.28776 10.4638 6.32929 10.8203 6.38706 11.13C6.52608 11.8682 6.75897 12.322 6.75897 12.322C6.75897 12.322 5.14132 18.9282 4.85787 20.0877C4.29458 22.3942 4.77302 25.2193 4.81273 25.5038C4.83621 25.6712 5.0637 25.7126 5.16299 25.5848C5.30923 25.3994 7.19228 23.1595 7.83139 20.9214C8.01193 20.2858 8.8695 17.0034 8.8695 17.0034C9.38404 17.9469 10.8825 18.7769 12.4785 18.7769C16.3457 18.7769 19.1982 16.0077 20.1244 11.9565C20.3356 11.0328 20.4476 10.0443 20.4476 9.00896C20.4494 4.78668 16.7374 0.848877 11.0974 0.848877Z" fill="black"/>
</svg>
