<svg width="44" height="34" viewBox="0 0 44 34" fill="none" xmlns="http://www.w3.org/2000/svg">
<path d="M43.3543 16.9028C43.7109 16.9028 44 16.6137 44 16.2571V11.6476C44 11.291 43.7109 11.0019 43.3543 11.0019H39.3204V9.55575C40.843 9.25445 41.9946 7.90859 41.9946 6.29881C41.9946 4.70148 39.6716 1.25745 39.2059 0.583188C38.8517 0.211595 38.4975 0.211595 38.1434 0.583188C37.6777 1.25737 35.3547 4.7014 35.3547 6.29881C35.3547 7.90859 36.5063 9.25437 38.029 9.55566V11.0018H33.9951C33.6384 11.0018 33.3493 11.2909 33.3493 11.6476V19.0637C33.1481 19.0432 32.9438 19.0327 32.7372 19.0327H29.4406C31.6826 17.6641 31.5081 10.8403 31.5473 7.56836C31.442 7.00014 31.1169 6.81245 30.5722 7.0053C30.4332 7.08771 27.4126 8.88441 25.0126 10.6745C23.9852 8.47139 22.8274 6.39033 22.603 5.9908C22.2276 5.55132 21.8524 5.55132 21.477 5.9908C21.2558 6.38474 20.1273 8.41295 19.111 10.5812C16.7307 8.82141 13.8117 7.08496 13.6775 7.0053C13.1327 6.81245 12.8077 7.00014 12.7023 7.56827C12.7409 10.8166 13.0433 18.338 14.8065 19.0326H10.6515V11.6475C10.6515 11.2908 10.3624 11.0017 10.0058 11.0017H5.97154V9.55558C7.49418 9.25428 8.64583 7.90841 8.64583 6.29863C8.64583 4.70131 6.32277 1.25728 5.85707 0.583017C5.50292 0.211423 5.14869 0.211423 4.79454 0.583017C4.32884 1.2572 2.00587 4.70123 2.00587 6.29863C2.00587 7.90841 3.15752 9.2542 4.68016 9.55549V11.0016H0.645734C0.289094 11.0016 0 11.2907 0 11.6474V33.0497C0 33.4063 0.289094 33.6954 0.645734 33.6954H11.1991C11.5558 33.6954 11.8449 33.4063 11.8449 33.0497C11.8449 32.6931 11.5558 32.404 11.1991 32.404H1.29138V31.0213H42.7085V32.404H14.0135C13.6568 32.404 13.3678 32.6931 13.3678 33.0497C13.3678 33.4063 13.6568 33.6954 14.0135 33.6954H43.3543C43.7109 33.6954 44 33.4063 44 33.0497V19.0715C44 18.7149 43.7109 18.4258 43.3543 18.4258C42.9976 18.4258 42.7085 18.7149 42.7085 19.0715V29.7299H36.4552C37.8815 28.5971 38.731 26.8524 38.731 25.0266C38.731 22.3867 37.0154 20.14 34.6406 19.3426V12.2933H42.7084V16.2571C42.7086 16.6138 42.9977 16.9028 43.3543 16.9028ZM30.2295 8.72749C30.1445 11.4421 29.8555 16.1043 29.1372 17.3487C28.3627 18.69 26.7982 19.2972 25.3675 18.9224C26.1898 18.0821 26.6975 16.9326 26.6975 15.6668C26.6975 14.8163 26.2026 13.3876 25.5553 11.8827C27.1225 10.6934 29.0709 9.44652 30.2295 8.72749ZM22.04 7.6512C23.0165 9.34778 25.406 14.943 25.406 15.6667C25.406 17.3019 24.2339 18.6685 22.6857 18.9705C22.2894 19.0484 21.8619 19.0551 21.3943 18.9705C19.8461 18.6685 18.674 17.3019 18.674 15.6667C18.674 14.9273 20.9208 9.5487 22.04 7.6512ZM14.0202 8.72749C15.1473 9.42719 17.0224 10.6266 18.5665 11.7862C17.8989 13.3263 17.3827 14.7981 17.3827 15.6667C17.3827 16.9496 17.9041 18.1131 18.7462 18.9563C18.2222 19.0714 17.6759 19.0567 17.1567 18.9174C16.2882 18.6845 15.5622 18.1275 15.1125 17.3485C14.3936 16.1042 14.1049 11.442 14.0202 8.72749ZM3.29734 6.29889C3.29734 5.55948 4.35677 3.62795 5.32598 2.11683C6.29518 3.62752 7.35445 5.55862 7.35445 6.29889C7.35445 7.19178 6.77454 7.95181 5.97154 8.22209V6.30379C5.97154 5.94715 5.68245 5.65806 5.3258 5.65806C4.96916 5.65806 4.68007 5.94715 4.68007 6.30379V8.22209C3.87716 7.95181 3.29734 7.19178 3.29734 6.29889ZM5.62891 29.7299H1.29138V12.2934H9.36014V19.0379C7.14209 19.1454 5.34901 21.0299 5.34901 23.2541C5.34901 24.5043 5.88887 25.6288 6.75271 26.4022C5.64412 26.9161 5.05802 28.6518 5.62891 29.7299ZM37.4397 25.0266C37.4397 27.5927 35.3035 29.7299 32.7372 29.7299H7.76909C7.14673 29.7299 6.64039 29.2232 6.64039 28.6004C6.70502 27.9123 7.08125 27.5358 7.76909 27.4708L32.3042 27.4665C33.7772 27.3283 34.5825 26.5228 34.72 25.0499C34.72 23.7207 33.6382 22.6367 32.3082 22.6333L23.611 22.6143H23.6095C23.2536 22.6143 22.9646 22.9024 22.9639 23.2586C22.9631 23.6152 23.2515 23.9049 23.6082 23.9057L32.3051 23.9247C32.9245 23.9263 33.4286 24.4311 33.4286 25.0499C33.3648 25.7359 32.9899 26.111 32.304 26.1751L9.42339 26.1794C7.86182 26.1029 6.64048 24.8206 6.64048 23.254C6.64048 21.6556 7.97079 20.3242 9.5694 20.3242H32.7373C35.3302 20.3242 37.4397 22.4337 37.4397 25.0266ZM38.6746 5.66132C38.318 5.66132 38.0289 5.95041 38.0289 6.30705V8.22209C37.226 7.95181 36.6461 7.19178 36.6461 6.29889C36.6461 5.55948 37.7055 3.62795 38.6747 2.11683C39.6439 3.62752 40.7032 5.55862 40.7032 6.29889C40.7032 7.19178 40.1233 7.95181 39.3203 8.22209V6.30705C39.3204 5.95041 39.0313 5.66132 38.6746 5.66132Z" fill="black"/>
<path d="M20.7976 22.6083L10.0075 22.5841H10.006C9.65013 22.5841 9.36113 22.8723 9.36035 23.2284C9.35958 23.5849 9.64799 23.8747 10.0046 23.8755L20.7948 23.8996H20.7962C21.1521 23.8996 21.4411 23.6115 21.4419 23.2554C21.4427 22.8988 21.1542 22.6091 20.7976 22.6083Z" fill="black"/>
</svg>
