<svg width="29" height="23" viewBox="0 0 29 23" fill="none" xmlns="http://www.w3.org/2000/svg">
<path d="M28.4204 2.68624C27.3895 3.14177 26.281 3.44967 25.1165 3.59011C26.3044 2.8789 27.2162 1.75355 27.6458 0.415747C26.5337 1.07115 25.3042 1.5501 23.9935 1.80758C22.9446 0.691238 21.4497 -0.00378418 19.7959 -0.00378418C16.6202 -0.00378418 14.0439 2.5638 14.0439 5.73097C14.0439 6.18111 14.0945 6.61864 14.1938 7.03817C9.41486 6.8005 5.17757 4.5174 2.33947 1.04774C1.84479 1.8958 1.56135 2.8789 1.56135 3.93042C1.56135 5.92003 2.57598 7.67376 4.1196 8.70548C3.17718 8.67487 2.29074 8.41738 1.51441 7.98705C1.51261 8.01046 1.51261 8.03567 1.51261 8.06088C1.51261 10.8391 3.49495 13.1564 6.12723 13.6858C5.64519 13.8154 5.13787 13.8856 4.61249 13.8856C4.24058 13.8856 3.88131 13.8496 3.53106 13.7812C4.26225 16.0607 6.38719 17.7172 8.90392 17.764C6.93423 19.3035 4.45542 20.22 1.76175 20.22C1.29596 20.22 0.839194 20.1948 0.389648 20.1408C2.93527 21.7684 5.95751 22.7173 9.20543 22.7173C19.7851 22.7173 25.5678 13.9793 25.5678 6.39717C25.5678 6.1487 25.5624 5.90202 25.5516 5.65535C26.6745 4.8469 27.6495 3.83679 28.4204 2.68624Z" fill="black"/>
</svg>
