<svg width="30" height="30" viewBox="0 0 30 30" fill="none" xmlns="http://www.w3.org/2000/svg">
<path d="M15.4033 0.900269C7.35842 0.900269 0.812012 7.42905 0.812012 15.4541C0.812012 23.4809 7.35842 30.0097 15.4033 30.0097C23.4518 30.0097 30 23.4809 30 15.4541C30 7.42905 23.4536 0.900269 15.4033 0.900269ZM28.6062 15.7152C25.0622 14.9932 21.9876 15.049 19.3463 15.5891C18.9509 14.4908 18.4382 13.3889 17.8532 12.3085C21.4171 10.9851 23.9176 9.13237 25.3204 6.76645C27.3677 9.08736 28.6117 12.1267 28.6117 15.4523C28.6135 15.5423 28.608 15.627 28.6062 15.7152ZM24.3166 5.74014C22.9589 8.28432 20.2472 9.96963 17.1564 11.086C15.026 7.52088 12.3341 4.40233 11.0703 3.01411C12.4298 2.54057 13.8886 2.28129 15.4033 2.28129C18.8354 2.28309 21.9642 3.59389 24.3166 5.74014ZM9.70183 3.57768C10.6695 4.622 13.5419 7.84318 15.8005 11.5343C10.4745 13.1386 4.48061 13.2592 2.38634 13.2448C3.11573 8.97573 5.90506 5.39624 9.70183 3.57768ZM2.19857 15.4541C2.19857 15.1768 2.20941 14.9013 2.22747 14.6295C2.38815 14.6331 2.57048 14.633 2.78352 14.633C4.57268 14.633 8.10766 14.5304 11.9441 13.8588C13.6105 13.5689 15.1289 13.1998 16.519 12.7659C17.0968 13.8084 17.6023 14.8707 17.9904 15.9204C11.1245 17.8488 7.48479 22.9876 6.29864 24.9862C3.77649 22.5807 2.19857 19.1992 2.19857 15.4541ZM7.36203 25.8919C8.25931 24.2534 11.5975 19.0318 18.4075 17.1934C20.1172 22.8436 20.4602 25.5714 20.6715 27.5322C19.0574 28.2344 17.2755 28.6269 15.4033 28.6269C12.3793 28.6269 9.5899 27.606 7.36203 25.8919ZM21.993 26.8642C21.7674 24.8944 21.3413 22.1215 19.7616 16.8837C22.2458 16.412 25.1489 16.3958 28.5033 17.107C27.9798 21.2771 25.4919 24.8458 21.993 26.8642Z" fill="black"/>
</svg>
